<?xml version="1.0" encoding="UTF-8"?>
<svg width="24px" height="24px" viewBox="0 0 24 24" version="1.1" xmlns="http://www.w3.org/2000/svg" xmlns:xlink="http://www.w3.org/1999/xlink">
    <!-- Generator: Sketch 53.2 (72643) - https://sketchapp.com -->
    <title>Iconly/Light-Outline/Paper_Selected</title>
    <desc>Created with Sketch.</desc>
    <g id="Iconly/Light-Outline/Paper_Selected" stroke="none" stroke-width="1" fill="none" fill-rule="evenodd">
        <g id="Paper" transform="translate(3.000000, 2.000000)">
            <path d="M4.5854,19.8657 L4.4764,19.8657 C1.9544,19.8087 -0.0536,17.7107 0.0014,15.1877 L0.0014,4.4907 C0.0594,2.0097 2.1084,0.0117 4.5714,0.0117 L4.5884,0.0117 L11.2384,0.0117 C11.4424,0.0117 11.6374,0.0947 11.7794,0.2417 L16.8444,5.5187 C16.9784,5.6577 17.0534,5.8447 17.0534,6.0377 L17.0534,15.2037 C17.0714,17.7127 15.1174,19.7627 12.6044,19.8647 L4.5854,19.8657 Z" id="Fill-1" fill="#B3E0B9"></path>
            <path d="M15.5534,6.9843 L13.5435,6.9843 C11.7135,6.9793 10.2255,5.4873 10.2255,3.6593 L10.2255,1.5117 L4.5854,1.5117 L4.5734,1.5117 C2.9164,1.5117 1.5404,2.8537 1.5014,4.5087 L1.5014,15.2037 C1.4644,16.9167 2.8144,18.3277 4.5104,18.3657 L12.5744,18.3657 C14.2434,18.2967 15.5654,16.9097 15.5534,15.2097 L15.5534,6.9843 Z M14.7321947,5.4843 L11.7255,2.3524074 L11.7255,3.6593 C11.7255,4.6633 12.5425,5.4813 13.5455,5.4843 L14.7321947,5.4843 Z M10.8446016,0.0117 C10.8871114,0.00420786975 10.9308521,0.0003 10.9755,0.0003 C11.0201479,0.0003 11.0638886,0.00420786975 11.1063984,0.0117 L11.2384,0.0117 C11.4424,0.0117 11.6374,0.0947 11.7794,0.2417 L16.8444,5.5187 C16.9784,5.6577 17.0534,5.8447 17.0534,6.0377 L17.0534,15.2037 C17.0714,17.7127 15.1174,19.7627 12.6044,19.8647 L4.5854,19.8657 L4.4764,19.8657 C1.9544,19.8087 -0.0536,17.7107 0.0014,15.1877 L0.0014,4.4907 C0.0594,2.0097 2.1084,0.0117 4.5714,0.0117 L4.5884,0.0117 L10.8446016,0.0117 Z M10.7887,14.1084 L5.3887,14.1084 C4.9747,14.1084 4.6387,13.7724 4.6387,13.3584 C4.6387,12.9444 4.9747,12.6084 5.3887,12.6084 L10.7887,12.6084 C11.2027,12.6084 11.5387,12.9444 11.5387,13.3584 C11.5387,13.7724 11.2027,14.1084 10.7887,14.1084 Z M8.7438,10.3564 L5.3878,10.3564 C4.9738,10.3564 4.6378,10.0204 4.6378,9.6064 C4.6378,9.1924 4.9738,8.8564 5.3878,8.8564 L8.7438,8.8564 C9.1578,8.8564 9.4938,9.1924 9.4938,9.6064 C9.4938,10.0204 9.1578,10.3564 8.7438,10.3564 Z" id="Combined-Shape" fill="#000000"></path>
        </g>
    </g>
</svg>